<svg width="548" height="395" viewBox="0 0 548 395" fill="none" xmlns="http://www.w3.org/2000/svg">
<path opacity="0.6" d="M318.251 70.3112C283.183 69.093 249.758 57.7768 217.888 45.3985C186.019 33.0202 154.431 19.3029 120.185 12.7438C98.1664 8.52035 72.9852 7.92635 55.2475 19.7258C38.1746 31.0771 32.6599 50.674 29.6935 68.8564C27.4625 82.5385 26.1682 96.9353 32.2671 109.747C36.5126 118.636 44.0469 126.112 49.2594 134.629C67.3899 164.263 54.5726 200.809 34.9212 229.769C25.7048 243.361 15.0129 256.293 7.90167 270.745C0.790478 285.197 -2.50323 301.754 3.72158 316.493C9.89099 331.091 24.5868 342.075 40.5114 349.792C72.8542 365.452 110.964 369.932 148.126 372.5C230.388 378.123 313.094 375.686 395.572 373.25C426.097 372.344 456.758 371.433 486.784 366.706C503.459 364.083 520.678 359.925 532.785 349.888C548.151 337.142 551.963 315.567 541.664 299.584C524.39 272.784 476.631 266.124 464.554 237.36C457.911 221.529 464.735 203.89 474.395 189.206C495.109 157.709 529.839 130.073 531.667 94.066C532.926 69.3346 516.231 44.573 490.415 32.8692C463.36 20.5916 425.84 22.142 405.882 42.4336C385.329 63.3393 349.209 71.3834 318.251 70.3112Z" fill="#587EEC"/>
<path d="M122.436 365.805C122.436 365.805 94.7368 344.874 89.5042 318.25C87.3822 307.068 81.6903 296.875 73.2824 289.199C69.2602 285.589 64.9159 282.354 60.304 279.534" stroke="#9AB1F3" stroke-width="2" stroke-miterlimit="10"/>
<path d="M56.9146 262.761C59.342 266.043 60.4399 279.952 60.4399 279.952C60.4399 279.952 47.4615 274.843 45.029 271.566C43.8609 269.99 43.3668 268.016 43.6554 266.076C43.9439 264.137 44.9915 262.391 46.5676 261.223C48.1437 260.056 50.1193 259.562 52.0597 259.85C54.0002 260.139 55.7465 261.186 56.9146 262.761Z" fill="#587EEC"/>
<path d="M80.1922 273.675C80.4441 277.747 73.8113 290.02 73.8113 290.02C73.8113 290.02 65.6878 278.673 65.431 274.601C65.3333 272.66 66.0049 270.758 67.3003 269.308C68.5957 267.858 70.4105 266.976 72.3515 266.855C74.2925 266.733 76.2034 267.38 77.6701 268.657C79.1368 269.933 80.0411 271.736 80.1872 273.675H80.1922Z" fill="#587EEC"/>
<path d="M102.755 305.046C100.921 308.69 88.9905 315.939 88.9905 315.939C88.9905 315.939 87.7163 302.046 89.5495 298.401C90.4519 296.687 91.9914 295.396 93.8368 294.805C95.6821 294.214 97.6857 294.371 99.4164 295.242C101.147 296.113 102.467 297.628 103.091 299.462C103.715 301.295 103.594 303.301 102.755 305.046Z" fill="#587EEC"/>
<path d="M114.484 332.611C113.29 336.513 102.759 345.669 102.759 345.669C102.759 345.669 99.1484 332.194 100.342 328.287C100.916 326.413 102.211 324.843 103.943 323.923C105.674 323.003 107.701 322.808 109.576 323.382C111.451 323.955 113.022 325.25 113.942 326.981C114.863 328.712 115.058 330.737 114.484 332.611Z" fill="#587EEC"/>
<path d="M61.8047 299.886C65.8337 300.43 78.5704 294.681 78.5704 294.681C78.5704 294.681 67.8231 285.781 63.7739 285.238C61.8305 284.977 59.8629 285.498 58.304 286.687C56.7452 287.876 55.7227 289.635 55.4616 291.578C55.2004 293.52 55.722 295.487 56.9116 297.045C58.1012 298.603 59.8613 299.625 61.8047 299.886Z" fill="#587EEC"/>
<path d="M75.9314 331.957C79.9604 331.267 90.3703 321.98 90.3703 321.98C90.3703 321.98 77.4473 316.704 73.4233 317.394C72.4599 317.552 71.5373 317.899 70.7088 318.415C69.8802 318.931 69.1622 319.606 68.5961 320.401C68.0299 321.196 67.6269 322.095 67.4103 323.047C67.1937 323.998 67.1678 324.983 67.3341 325.945C67.5003 326.906 67.8555 327.826 68.379 328.649C68.9026 329.473 69.5842 330.185 70.3844 330.744C71.1847 331.303 72.0877 331.698 73.0415 331.906C73.9953 332.114 74.9809 332.131 75.9415 331.957H75.9314Z" fill="#587EEC"/>
<path d="M93.936 361.249C98.0204 361.249 109.856 353.854 109.856 353.854C109.856 353.854 98.0153 346.47 93.9309 346.47C91.9701 346.47 90.0896 347.248 88.7031 348.634C87.3166 350.02 86.5377 351.899 86.5377 353.859C86.5377 355.819 87.3166 357.699 88.7031 359.085C90.0896 360.47 91.9701 361.249 93.9309 361.249H93.936Z" fill="#587EEC"/>
<path d="M391.523 184.772C391.523 184.772 408.596 154.543 434.331 145.835C445.138 142.247 454.489 135.255 460.983 125.905C464.029 121.436 466.657 116.696 468.835 111.745" stroke="#9AB1F3" stroke-width="2" stroke-miterlimit="10"/>
<path d="M484.991 106.208C482.06 109.047 468.417 111.987 468.417 111.987C468.417 111.987 471.766 98.4455 474.697 95.6014C476.112 94.2774 477.99 93.5616 479.928 93.6082C481.865 93.6548 483.707 94.46 485.056 95.8504C486.406 97.2408 487.155 99.1053 487.143 101.042C487.131 102.98 486.358 104.834 484.991 106.208Z" fill="#587EEC"/>
<path d="M477.275 130.687C473.246 131.483 460.218 126.54 460.218 126.54C460.218 126.54 470.391 116.975 474.395 116.195C475.356 115.982 476.35 115.963 477.319 116.139C478.288 116.315 479.212 116.683 480.037 117.22C480.861 117.758 481.57 118.455 482.122 119.271C482.673 120.086 483.056 121.004 483.248 121.969C483.44 122.935 483.437 123.929 483.239 124.893C483.041 125.857 482.653 126.772 482.097 127.584C481.54 128.396 480.827 129.089 479.999 129.622C479.171 130.155 478.245 130.517 477.275 130.687Z" fill="#587EEC"/>
<path d="M449.193 157.206C445.336 155.872 436.567 145.019 436.567 145.019C436.567 145.019 450.165 141.908 454.033 143.242C454.962 143.55 455.821 144.04 456.56 144.682C457.298 145.325 457.902 146.108 458.335 146.985C458.768 147.863 459.023 148.818 459.084 149.794C459.145 150.771 459.012 151.75 458.691 152.675C458.371 153.6 457.87 154.452 457.217 155.181C456.565 155.911 455.773 156.503 454.89 156.925C454.006 157.347 453.048 157.588 452.07 157.637C451.092 157.685 450.114 157.539 449.193 157.206Z" fill="#587EEC"/>
<path d="M423.388 172.489C419.359 171.824 408.903 162.587 408.903 162.587C408.903 162.587 421.791 157.221 425.815 157.886C427.752 158.204 429.483 159.278 430.627 160.872C431.771 162.466 432.235 164.449 431.916 166.385C431.598 168.321 430.523 170.051 428.928 171.195C427.334 172.338 425.35 172.802 423.413 172.484L423.388 172.489Z" fill="#587EEC"/>
<path d="M448.841 115.953C448.836 120.036 456.244 131.881 456.244 131.881C456.244 131.881 463.642 120.051 463.642 115.974C463.668 114.987 463.496 114.006 463.136 113.087C462.776 112.168 462.236 111.331 461.547 110.624C460.858 109.917 460.035 109.356 459.125 108.972C458.216 108.589 457.239 108.391 456.252 108.391C455.265 108.391 454.287 108.589 453.378 108.972C452.468 109.356 451.645 109.917 450.956 110.624C450.267 111.331 449.727 112.168 449.367 113.087C449.007 114.006 448.835 114.987 448.861 115.974L448.841 115.953Z" fill="#587EEC"/>
<path d="M418.91 134.206C420.129 138.102 430.725 147.189 430.725 147.189C430.725 147.189 434.251 133.688 433.022 129.792C432.385 127.986 431.071 126.499 429.359 125.642C427.646 124.785 425.668 124.626 423.84 125.198C422.013 125.771 420.478 127.029 419.561 128.71C418.643 130.39 418.414 132.36 418.92 134.206H418.91Z" fill="#587EEC"/>
<path d="M392.284 155.937C392.828 159.965 401.732 170.722 401.732 170.722C401.732 170.722 407.478 158.011 406.934 153.969C406.826 152.99 406.523 152.042 406.044 151.181C405.564 150.32 404.917 149.564 404.14 148.957C403.364 148.35 402.474 147.905 401.522 147.646C400.571 147.388 399.577 147.323 398.6 147.454C397.623 147.585 396.683 147.911 395.833 148.411C394.984 148.911 394.243 149.576 393.655 150.366C393.066 151.156 392.641 152.057 392.406 153.013C392.171 153.97 392.129 154.964 392.284 155.937Z" fill="#587EEC"/>
<path opacity="0.25" d="M484.991 106.208C482.06 109.047 468.417 111.987 468.417 111.987C468.417 111.987 471.766 98.4455 474.697 95.6014C476.112 94.2774 477.99 93.5616 479.928 93.6082C481.865 93.6548 483.707 94.46 485.056 95.8504C486.406 97.2408 487.155 99.1053 487.143 101.042C487.131 102.98 486.358 104.834 484.991 106.208Z" fill="black"/>
<path opacity="0.25" d="M477.275 130.687C473.246 131.483 460.218 126.54 460.218 126.54C460.218 126.54 470.391 116.975 474.395 116.195C475.356 115.982 476.35 115.963 477.319 116.139C478.288 116.315 479.212 116.683 480.037 117.22C480.861 117.758 481.57 118.455 482.122 119.271C482.673 120.086 483.056 121.004 483.248 121.969C483.44 122.935 483.437 123.929 483.239 124.893C483.041 125.857 482.653 126.772 482.097 127.584C481.54 128.396 480.827 129.089 479.999 129.622C479.171 130.155 478.245 130.517 477.275 130.687Z" fill="black"/>
<path opacity="0.25" d="M449.193 157.206C445.336 155.872 436.567 145.019 436.567 145.019C436.567 145.019 450.165 141.908 454.033 143.242C454.962 143.55 455.821 144.04 456.56 144.682C457.298 145.325 457.902 146.108 458.335 146.985C458.768 147.863 459.023 148.818 459.084 149.794C459.145 150.771 459.012 151.75 458.691 152.675C458.371 153.6 457.87 154.452 457.217 155.181C456.565 155.911 455.773 156.503 454.89 156.925C454.006 157.347 453.048 157.588 452.07 157.637C451.092 157.685 450.114 157.539 449.193 157.206Z" fill="black"/>
<path opacity="0.25" d="M423.388 172.489C419.359 171.824 408.903 162.587 408.903 162.587C408.903 162.587 421.791 157.221 425.815 157.886C427.752 158.204 429.483 159.278 430.627 160.872C431.771 162.466 432.235 164.449 431.916 166.385C431.598 168.321 430.523 170.051 428.928 171.195C427.334 172.338 425.35 172.802 423.413 172.484L423.388 172.489Z" fill="black"/>
<path opacity="0.25" d="M448.841 115.953C448.836 120.036 456.244 131.881 456.244 131.881C456.244 131.881 463.642 120.051 463.642 115.974C463.668 114.987 463.496 114.006 463.136 113.087C462.776 112.168 462.236 111.331 461.547 110.624C460.858 109.917 460.035 109.356 459.125 108.972C458.216 108.589 457.239 108.391 456.252 108.391C455.265 108.391 454.287 108.589 453.378 108.972C452.468 109.356 451.645 109.917 450.956 110.624C450.267 111.331 449.727 112.168 449.367 113.087C449.007 114.006 448.835 114.987 448.861 115.974L448.841 115.953Z" fill="black"/>
<path opacity="0.25" d="M418.91 134.206C420.129 138.102 430.725 147.189 430.725 147.189C430.725 147.189 434.251 133.688 433.022 129.792C432.385 127.986 431.071 126.499 429.359 125.642C427.646 124.785 425.668 124.626 423.84 125.198C422.013 125.771 420.478 127.029 419.561 128.71C418.643 130.39 418.414 132.36 418.92 134.206H418.91Z" fill="black"/>
<path opacity="0.25" d="M392.284 155.937C392.828 159.965 401.732 170.722 401.732 170.722C401.732 170.722 407.478 158.011 406.934 153.969C406.826 152.99 406.523 152.042 406.044 151.181C405.564 150.32 404.917 149.564 404.14 148.957C403.364 148.35 402.474 147.905 401.522 147.646C400.571 147.388 399.577 147.323 398.6 147.454C397.623 147.585 396.683 147.911 395.833 148.411C394.984 148.911 394.243 149.576 393.655 150.366C393.066 151.156 392.641 152.057 392.406 153.013C392.171 153.97 392.129 154.964 392.284 155.937Z" fill="black"/>
<path d="M392.505 184.172C392.505 184.172 395.859 149.62 415.833 131.246C424.258 123.589 429.972 113.408 432.12 102.231C433.098 96.9174 433.585 91.5253 433.576 86.1226" stroke="#9AB1F3" stroke-width="2" stroke-miterlimit="10"/>
<path d="M446.096 74.4642C444.585 78.2496 433.284 86.4649 433.284 86.4649C433.284 86.4649 430.856 72.7275 432.382 68.942C433.117 67.1243 434.544 65.6728 436.349 64.9067C438.155 64.1406 440.191 64.1227 442.009 64.857C443.828 65.5913 445.28 67.0176 446.046 68.8221C446.813 70.6266 446.831 72.6616 446.096 74.4793V74.4642Z" fill="#587EEC"/>
<path d="M448.972 99.996C445.633 102.342 431.697 103.112 431.697 103.112C431.697 103.112 437.126 90.2554 440.465 87.9096C441.257 87.3173 442.16 86.8897 443.12 86.6523C444.08 86.415 445.078 86.3726 446.055 86.5277C447.032 86.6828 447.968 87.0322 448.807 87.5553C449.647 88.0784 450.372 88.7645 450.942 89.573C451.511 90.3814 451.912 91.2959 452.121 92.2621C452.331 93.2284 452.344 94.2268 452.16 95.1982C451.976 96.1696 451.6 97.0943 451.052 97.9176C450.504 98.7408 449.797 99.4459 448.972 99.9909V99.996Z" fill="#587EEC"/>
<path d="M434.034 135.626C429.965 135.968 417.546 129.585 417.546 129.585C417.546 129.585 428.726 121.229 432.795 120.886C434.75 120.722 436.689 121.341 438.187 122.606C439.685 123.871 440.619 125.679 440.783 127.632C440.947 129.585 440.329 131.524 439.063 133.021C437.797 134.518 435.988 135.451 434.034 135.616V135.626Z" fill="#587EEC"/>
<path d="M416.654 160.035C412.701 161.042 399.385 156.879 399.385 156.879C399.385 156.879 408.989 146.756 412.942 145.729C414.84 145.237 416.856 145.519 418.546 146.512C420.237 147.506 421.463 149.13 421.955 151.027C422.447 152.924 422.165 154.939 421.171 156.628C420.177 158.318 418.552 159.543 416.654 160.035Z" fill="#587EEC"/>
<path d="M417.007 98.0428C418.659 101.773 430.212 109.621 430.212 109.621C430.212 109.621 432.176 95.8077 430.524 92.0776C429.701 90.3324 428.228 88.9783 426.419 88.3044C424.61 87.6306 422.61 87.6905 420.844 88.4714C419.079 89.2523 417.69 90.6923 416.973 92.4836C416.256 94.2749 416.268 96.2755 417.007 98.0579V98.0428Z" fill="#587EEC"/>
<path d="M397.043 126.847C399.737 129.912 413.104 133.929 413.104 133.929C413.104 133.929 410.847 120.162 408.153 117.096C407.517 116.351 406.739 115.74 405.865 115.299C404.991 114.857 404.037 114.593 403.06 114.523C402.083 114.453 401.102 114.577 400.173 114.889C399.245 115.201 398.388 115.695 397.652 116.341C396.915 116.987 396.315 117.773 395.886 118.652C395.456 119.532 395.205 120.489 395.149 121.466C395.092 122.444 395.23 123.423 395.556 124.347C395.881 125.27 396.386 126.12 397.043 126.847Z" fill="#587EEC"/>
<path d="M381.486 157.513C383.621 160.986 396.116 167.203 396.116 167.203C396.116 167.203 396.222 153.254 394.102 149.776C393.046 148.17 391.407 147.038 389.53 146.62C387.654 146.202 385.688 146.531 384.05 147.538C382.413 148.544 381.232 150.149 380.758 152.011C380.284 153.873 380.554 155.847 381.511 157.513H381.486Z" fill="#587EEC"/>
<path d="M366.82 48.8569C367.656 45.7912 368.664 42.7105 369.369 39.6046C368.523 42.7105 367.51 45.8013 366.82 48.8569Z" fill="url(#paint0_linear_4_6)"/>
<path d="M363.073 78.3856C363.003 78.2647 362.953 78.1439 362.897 78.0332C362.897 77.9828 362.847 77.9426 362.827 77.8922C362.717 77.944 362.604 77.9894 362.489 78.0281C362.268 78.1137 362.041 78.1943 361.809 78.2597C361.578 78.3251 361.482 78.3604 361.306 78.4007C361.16 78.451 361.01 78.4897 360.857 78.5164L360.898 78.607C361.084 78.5668 361.265 78.5315 361.452 78.4812L361.502 79.1054C361.714 79.1054 361.91 79.0752 362.101 79.0752C362.192 79.0702 362.283 79.0702 362.373 79.0752C362.766 79.0752 363.109 79.0752 363.381 79.0752C363.275 78.8487 363.164 78.6121 363.073 78.3856ZM465.309 241.045C462.942 237.859 458.218 203.659 458.218 203.659C458.218 203.659 448.926 179.34 451.46 169.635C453.993 159.929 444.54 135.097 444.54 135.097C444.54 135.097 438.295 132.384 437.957 128.357C437.957 128.357 412.459 120.303 411.265 114.262C410.298 109.309 394.484 105.755 388.804 104.632C387.071 97.6452 385.329 91.1263 384.044 87.5673C383.697 86.4599 383.369 85.5034 383.067 84.7484C380.897 79.2111 374.188 78.7077 369.323 79.1507C369.113 78.2069 368.721 77.3129 368.17 76.518C368.09 76.2447 367.93 76.0013 367.712 75.8183C367.607 75.7293 367.496 75.6485 367.379 75.5766C367.291 75.4135 367.175 75.267 367.037 75.1437C366.899 75.0193 366.747 74.9112 366.584 74.8216C366.467 74.7583 366.345 74.7028 366.221 74.6555C365.929 74.5444 365.627 74.4617 365.32 74.4088C364.961 74.3351 364.597 74.2879 364.232 74.2678C365.121 73.8792 365.913 73.3 366.553 72.5714C366.989 72.0599 367.313 71.4633 367.505 70.8196C367.665 70.2844 367.736 69.7267 367.717 69.1685C367.586 69.3986 367.434 69.6159 367.264 69.8179C367.475 67.5879 366.297 65.3226 365.622 63.1027C364.804 60.2127 364.652 57.1749 365.178 54.2179C365.853 49.7579 367.525 45.2476 368.659 40.707C368.661 40.6819 368.661 40.6566 368.659 40.6315C369.253 38.3765 369.621 36.068 369.756 33.7401C369.953 29.0435 368.749 24.357 366.815 20.0782C365.098 16.2877 362.565 12.5576 358.687 11.0172C355.806 9.85437 352.578 10.0406 349.475 9.84934C342.515 9.41643 335.878 6.96996 329.26 4.74499C322.642 2.52002 315.833 0.496399 308.868 0.884007C301.903 1.27162 294.736 4.62921 291.559 10.7907C290.551 12.7136 289.972 14.853 288.768 16.6602C286.512 20.0681 282.473 21.7746 279.104 24.1254C275.735 26.4762 272.768 29.8137 271.55 33.7955C270.884 35.9407 270.79 38.2225 271.278 40.415C271.387 40.9102 271.529 41.3978 271.701 41.8749C272.179 43.2049 272.924 44.423 273.891 45.4539C274.621 46.2159 275.459 46.8656 276.379 47.3819C277.535 48.0221 278.771 48.503 280.056 48.8115C280.01 48.9625 279.965 49.1236 279.915 49.2797C279.834 49.5364 279.764 49.7831 279.688 50.0599C279.522 50.6791 279.366 51.3083 279.235 51.9426C279.23 51.9878 279.23 52.0334 279.235 52.0785C278.616 54.9418 278.306 57.8629 278.308 60.7922C278.307 62.1775 278.378 63.562 278.52 64.9401C280.534 85.3675 297.406 101.481 318.251 102.528C318.966 102.563 319.686 102.583 320.416 102.583C320.749 102.583 321.076 102.583 321.424 102.583C321.751 103.016 322.073 103.459 322.38 103.892C322.688 104.325 322.97 104.768 323.237 105.201L322.506 104.446L321.776 103.776C321.578 104.048 321.357 104.302 321.116 104.537C320.64 104.369 320.154 104.231 319.661 104.124C317.571 103.661 314.388 103.489 310.198 104.753C306.345 105.906 301.636 108.277 296.126 112.782L269.278 128.89L254.754 137.72L249.521 150.506C249.521 150.506 245.588 165.698 241.211 183.105C241.04 183.156 240.874 183.206 240.708 183.266C240.353 183.226 239.997 183.206 239.64 183.206C237.101 183.2 234.658 184.178 232.825 185.934C230.992 187.69 229.911 190.088 229.809 192.624C221.106 203.195 220.613 213.767 222.658 218.619C222.843 219.074 223.076 219.508 223.353 219.913C224.692 221.846 227.195 226.829 229.734 232.14C229.668 232.578 229.628 232.946 229.608 233.223C229.603 233.313 229.603 233.404 229.608 233.494C229.608 233.494 231.118 256.303 226.082 262.842C224.979 264.266 225.145 266.139 226.082 268.213C229.457 275.673 242.798 285.635 242.798 285.635C242.798 285.635 258.798 285.55 267.712 284.578C267.687 285.474 267.667 286.365 267.646 287.236C267.445 296.035 267.445 303.41 267.445 303.41L267.113 312.637C267.113 312.637 264.091 332.083 262.58 337.444C261.628 340.806 262.726 371.941 263.683 394.83H421.328C423.181 381.289 420.567 340.147 420.567 340.147C420.567 340.147 418.084 329.51 417.994 320.238C417.989 320.228 417.986 320.217 417.986 320.205C417.986 320.194 417.989 320.183 417.994 320.173C417.994 319.362 417.994 318.572 418.024 317.797L419.167 317.756L421.222 317.686H421.408C421.408 317.686 421.459 317.495 421.574 317.183C421.846 316.405 422.217 315.666 422.677 314.983C423.554 313.689 424.924 312.42 426.983 312.335C428.122 312.29 429.884 311.368 431.874 310.009C431.887 310.012 431.901 310.012 431.914 310.009C437.267 306.39 444.343 299.71 446.061 298.613C448.423 297.102 459.734 287.035 459.734 287.035C459.734 287.035 461.421 284.9 463.219 282.328L463.285 282.237C465.521 279.016 467.898 275.165 467.314 273.952C466.306 271.777 467.989 266.577 467.989 266.577C473.241 256.967 467.676 244.232 465.309 241.045ZM367.923 86.2132C367.972 86.3635 368.002 86.519 368.014 86.6763C367.888 86.5102 367.762 86.334 367.636 86.173L367.515 86.0119L367.43 85.8911L367.621 85.6293C367.621 85.6293 367.621 85.6293 367.621 85.6645C367.754 85.8277 367.856 86.0136 367.923 86.2132ZM366.231 81.7532C365.682 81.864 365.249 81.9646 364.967 82.0401C364.609 81.4059 364.267 80.7716 363.96 80.1273C364.767 80.5955 365.528 81.1399 366.231 81.7532ZM365.284 82.5486C365.283 82.5386 365.283 82.5284 365.284 82.5184L365.325 82.5486C365.531 82.6845 365.733 82.8154 365.919 82.9513C366.085 83.0721 366.236 83.1879 366.387 83.3087C366.286 83.4849 366.176 83.6661 366.065 83.8121C365.889 83.5352 365.722 83.2684 365.561 82.9915C365.461 82.8808 365.37 82.7298 365.284 82.5486ZM362.263 76.3368C363.236 76.2408 364.216 76.2408 365.189 76.3368C365.325 76.3368 365.445 76.3619 365.566 76.3821C365.839 76.4243 366.108 76.4934 366.367 76.5885C366.962 77.4207 367.329 78.3944 367.43 79.4125L367.158 79.4527L366.891 79.5031C366.387 79.5886 365.884 79.6742 365.491 79.7548L364.987 79.8605C364.317 80.0065 363.93 80.1172 363.914 80.1222C363.849 79.9863 363.783 79.8605 363.713 79.7296C363.602 79.5131 363.486 79.2916 363.386 79.0752C363.285 78.8587 363.154 78.6121 363.048 78.3856C362.978 78.2647 362.927 78.1439 362.872 78.0332C362.872 77.9828 362.822 77.9426 362.801 77.8922C362.772 77.8388 362.747 77.7833 362.726 77.7261C362.419 77.1019 362.137 76.4777 361.865 75.8636C361.834 75.8032 361.809 75.7377 361.784 75.6773L362.167 75.6522V75.783L362.263 76.3368ZM242.103 388.608C242.062 381.113 241.518 373.003 240.007 365.392C239.363 362.155 238.698 358.918 238.023 355.737C237.852 354.942 237.686 354.156 237.52 353.371L235.968 353.577H235.827C231.597 333.638 227.175 316.07 227.175 316.07C227.175 316.07 218.392 282.549 219.409 279.876C219.54 279.529 219.374 278.593 219.001 277.219C216.876 269.597 208.002 248.596 204.9 241.418C204.9 241.387 204.875 241.352 204.864 241.327C204.361 240.124 203.998 239.314 203.887 239.077L204.618 228.365L204.658 227.721L204.754 226.351L204.713 226.316L204.754 225.682C204.754 225.682 197.089 219.4 184.105 214.864C183.601 214.683 183.068 214.507 182.539 214.335C183.188 210.001 184.05 205.108 185.173 200.341C185.279 199.863 185.394 199.4 185.515 198.932C185.621 198.464 185.742 198.011 185.863 197.552C186.054 196.807 186.261 196.073 186.472 195.348C187.172 195.126 187.862 194.879 188.542 194.618L188.804 194.517C197.18 191.259 204.091 185.079 208.257 177.119C212.424 169.16 213.564 159.961 211.467 151.226C210.271 146.272 208.063 141.618 204.98 137.559C204.749 137.247 204.502 136.935 204.255 136.627C204.008 136.32 203.711 135.978 203.434 135.666C204.89 132.359 206.607 129.213 206.748 125.996C206.773 125.589 206.773 125.18 206.748 124.773V124.722C206.562 122.653 205.645 120.559 203.51 118.36C200.392 115.133 195.955 113.497 191.518 112.712C187.081 111.926 182.559 111.906 178.097 111.378C170.699 110.492 163.492 108.211 156.093 107.512C146.981 106.668 137.806 108.23 129.487 112.042C123.982 114.559 118.407 118.959 118.075 124.994C117.803 129.983 121.278 134.765 120.401 139.693C119.53 144.536 114.595 148.346 115.028 153.244C115.194 155.157 116.176 156.869 117.405 158.394C117.828 158.897 118.276 159.401 118.74 159.904C120.532 161.802 122.507 163.624 123.509 166.015C123.549 166.116 123.589 166.217 123.625 166.317C124.476 168.678 124.093 171.663 121.988 173.017C122 173.026 122.008 173.039 122.013 173.053C122.043 173.093 122.074 173.123 122.099 173.163C122.102 173.155 122.102 173.146 122.099 173.138C122.845 174.023 123.851 174.65 124.974 174.93L125.402 175.061C125.055 175.439 124.728 175.831 124.395 176.244L124.179 176.531C123.624 177.277 123.119 178.059 122.668 178.872C122.411 179.325 122.164 179.778 121.958 180.231C121.267 181.612 120.768 183.08 120.472 184.595C119.933 187.928 120.694 191.401 119.878 194.663C118.87 198.69 115.683 201.781 113.885 205.521C110.48 212.569 112.409 220.839 113.094 228.622C114.026 239.193 112.515 249.809 111.009 260.31C110.21 265.894 109.411 271.483 108.612 277.078C106.597 291.119 104.583 305.16 102.568 319.201C101.833 324.346 100.962 329.772 97.5319 333.744H97.5671C97.5671 333.744 97.5671 333.774 97.5319 333.784C98.5614 334.234 99.6564 334.516 100.775 334.62C105.252 335.068 109.997 332.903 114.026 330.537C117.216 328.695 120.238 326.574 123.056 324.2C122.643 325.71 122.199 327.356 121.726 329.128C121.728 329.145 121.728 329.161 121.726 329.178C116.04 350.824 106.894 390.506 106.894 390.506C106.894 390.506 106.063 392.233 104.986 394.805H247.008C245.346 392.791 243.8 390.863 242.591 389.308L242.103 388.608ZM136.946 188.461C136.981 188.401 137.006 188.346 137.041 188.29C137.041 188.451 137.041 188.607 137.041 188.758C137.041 188.909 137.041 189.045 137.041 189.186C137.041 189.327 137.041 189.312 137.041 189.383C137.041 189.383 137.041 189.453 137.041 189.383C137.041 189.589 136.996 189.795 136.961 190.002C136.961 190.002 136.961 190.027 136.961 190.047L137.464 190.233L138.049 190.475C141.5 191.837 144.995 193.071 148.534 194.175C148.897 194.291 149.264 194.401 149.632 194.507L149.707 195.131C149.798 195.77 149.884 196.42 149.964 197.069C149.964 197.069 149.964 197.099 149.964 197.12C150.191 198.917 150.413 200.709 150.609 202.46C150.609 202.46 141.362 198.937 141.478 204.288C141.473 204.383 141.473 204.479 141.478 204.575C141.468 204.702 141.468 204.83 141.478 204.957C141.564 209.125 142.868 211.597 143.13 212.866C143.114 212.918 143.087 212.966 143.05 213.006C142.826 213.492 142.749 214.033 142.828 214.562C142.819 215.462 142.89 216.362 143.039 217.25C142.767 217.416 142.501 217.582 142.234 217.753C142.032 217.879 141.841 218.02 141.644 218.161C140.409 213.878 138.793 209.713 136.815 205.717C135.43 202.868 133.873 199.898 133.889 196.772C133.889 196.571 133.889 196.364 133.914 196.158C133.97 195.252 134.143 194.357 134.427 193.495C134.543 193.168 134.669 192.846 134.81 192.529C135.139 191.775 135.507 191.039 135.913 190.324C136.175 189.851 136.452 189.383 136.719 188.909C136.805 188.768 136.885 188.622 136.966 188.481L136.946 188.461ZM363.073 78.3856C363.003 78.2647 362.953 78.1439 362.897 78.0332C362.897 77.9828 362.847 77.9426 362.827 77.8922C362.717 77.944 362.604 77.9894 362.489 78.0281C362.268 78.1137 362.041 78.1943 361.809 78.2597C361.578 78.3251 361.482 78.3604 361.306 78.4007L360.857 78.5164L360.898 78.607C361.084 78.5668 361.265 78.5315 361.452 78.4812L361.502 79.1054C361.714 79.1054 361.91 79.0752 362.101 79.0752H362.373C362.766 79.0752 363.109 79.0752 363.381 79.0752C363.275 78.8487 363.164 78.6121 363.073 78.3856Z" fill="url(#paint1_linear_4_6)"/>
<path d="M253.031 152.323L250.01 153.657C250.01 153.657 230.313 230.142 230.313 236.323C230.313 242.505 272.078 276.901 272.078 276.901L278.595 232.936C278.595 232.936 269.238 132.112 253.031 152.323Z" fill="#E8F5FF"/>
<path d="M344.646 127.994L327.195 118.893C326.218 114.728 324.483 110.778 322.078 107.24C319.525 103.555 316.13 99.9355 311.9 98.0478C301.208 93.2556 357.125 68.1013 357.125 68.1013C358.006 71.1231 359.043 74.097 360.233 77.0113C363.114 84.1191 367.893 93.311 374.052 95.9286C384.523 100.384 344.646 127.994 344.646 127.994Z" fill="#FFB0B1"/>
<path opacity="0.1" d="M360.233 77.0113C357.844 85.4103 352.875 92.8468 346.029 98.2708C339.183 103.695 330.805 106.832 322.078 107.24C319.525 103.555 316.13 99.9355 311.9 98.0478C301.208 93.2556 357.125 68.1013 357.125 68.1013C358.006 71.1231 359.043 74.097 360.233 77.0113Z" fill="black"/>
<path d="M361.804 64.3108C361.806 72.5481 359.364 80.601 354.787 87.451C350.21 94.3009 343.703 99.6403 336.09 102.794C328.476 105.947 320.098 106.773 312.015 105.167C303.932 103.561 296.507 99.5946 290.68 93.7703C284.852 87.946 280.883 80.5251 279.275 72.4461C277.667 64.3671 278.492 55.993 281.646 48.3828C284.8 40.7726 290.141 34.2683 296.994 29.6924C303.847 25.1165 311.903 22.6746 320.144 22.6756C325.622 22.6503 331.05 23.7099 336.116 25.7933C341.181 27.8766 345.784 30.9424 349.657 34.8135C353.531 38.6847 356.598 43.2846 358.683 48.3474C360.768 53.4103 361.829 58.8359 361.804 64.3108Z" fill="#FFB0B1"/>
<path d="M367.817 122.648L356.456 149.147L346.434 166.735H314.353L304.995 142.688L308.788 117.75H333.289L349.108 116.859L354.451 115.077L357.896 117.031L367.817 122.648Z" fill="#575A89"/>
<path opacity="0.1" d="M363.904 87.3257C363.904 87.3257 370.99 88.8359 364.645 94.0358C358.299 99.2358 336.406 115.772 336.406 115.772C336.406 115.772 344.097 122.618 342.505 130.637L367.984 116.442L372.516 93.7288C372.516 93.7288 373.025 86.9028 363.904 87.3257Z" fill="black"/>
<path opacity="0.1" d="M341.417 115.772L325.211 118.445C325.211 118.445 328.555 130.803 326.883 134.312C326.832 134.421 326.79 134.534 326.757 134.649L320.144 152.514L325.1 166.544L342.253 143.162L336.406 134.312C336.406 134.312 342.586 126.127 346.262 123.288C349.939 120.449 341.417 115.772 341.417 115.772Z" fill="black"/>
<path d="M341.417 115.082L325.211 117.75C325.211 117.75 328.555 130.109 326.883 133.617C326.832 133.726 326.79 133.839 326.757 133.954L320.144 151.82L325.1 165.849L342.253 142.452L336.406 133.602C336.406 133.602 342.586 125.417 346.262 122.578C349.939 119.739 341.417 115.082 341.417 115.082Z" fill="#DCE6F2"/>
<path d="M364.584 85.9917C364.584 85.9917 371.67 87.5019 365.32 92.7019C358.969 97.9019 336.406 115.772 336.406 115.772C336.406 115.772 344.762 121.284 343.175 129.298L368.654 115.108L373.186 92.3948C373.186 92.3948 373.69 85.5689 364.584 85.9917Z" fill="#575A89"/>
<path opacity="0.1" d="M323.191 108.815C323.191 108.815 324.738 111.705 331.562 116.915C331.562 116.915 320.2 122.955 324.546 131.448L307.166 126.917L304.492 118.566L323.191 108.815Z" fill="black"/>
<path d="M322.521 108.151C322.521 108.151 324.067 111.04 330.892 116.25C330.892 116.25 319.53 122.261 323.876 130.778L306.501 126.248L303.827 117.902L322.521 108.151Z" fill="#575A89"/>
<path opacity="0.1" d="M367.817 122.648L356.456 149.147L346.454 166.735H314.353L304.995 142.688L308.783 117.751H315.597C315.486 123.57 317.611 130.406 317.475 132.948C317.243 137.126 323.71 159.668 323.71 159.668C323.71 159.668 337.242 137.79 342.586 135.842C345.945 134.619 353.061 124.441 357.891 117.031L367.817 122.648Z" fill="black"/>
<path d="M412.575 262.092L411.421 263.542C411.421 263.542 419.777 305.459 417.465 314.978C417.072 316.693 416.848 318.444 416.795 320.203V320.278C416.387 329.964 419.313 342.533 419.313 342.533C419.313 342.533 421.65 379.582 420.32 394.82H263.884C262.968 372.288 261.981 343.097 262.877 339.86C264.388 334.519 267.41 315.144 267.41 315.144L267.742 305.962C267.742 305.962 267.742 297.087 268.014 287.201C268.13 282.756 268.301 278.089 268.548 273.952C268.865 268.747 269.308 264.362 269.918 262.208C270.293 260.575 270.509 258.909 270.562 257.234C270.562 257.078 270.562 256.917 270.593 256.756C270.593 256.253 270.643 255.709 270.663 255.15C270.663 254.994 270.663 254.838 270.663 254.647C270.759 251.405 270.724 247.559 270.618 243.572C270.618 243.356 270.618 243.134 270.618 242.913C270.532 239.923 270.406 236.872 270.265 233.973C269.827 224.912 269.258 217.25 269.258 217.25L250.045 153.622L255.222 140.876L269.59 132.077L296.157 116.044C309.115 105.397 317.646 106.676 320.9 107.844C321.216 107.952 321.525 108.078 321.826 108.221C321.927 108.272 322.008 108.312 322.083 108.357C322.187 108.406 322.286 108.464 322.38 108.528C321.49 108.957 320.716 109.594 320.124 110.386C319.458 111.287 318.983 112.315 318.729 113.406C318.559 114.083 318.439 114.771 318.372 115.465C318.306 116.195 318.281 116.95 318.281 117.71C318.317 119.377 318.46 121.04 318.709 122.689C318.709 122.719 318.709 122.759 318.709 122.799C318.875 123.977 319.082 125.13 319.283 126.212C319.281 126.231 319.281 126.249 319.283 126.268C319.515 127.531 319.747 128.699 319.903 129.706C319.933 129.887 319.958 130.053 319.983 130.209C320.094 130.875 320.146 131.548 320.139 132.223C320.196 133.852 320.415 135.47 320.794 137.055C320.925 137.72 321.076 138.43 321.242 139.17C321.469 140.176 321.716 141.274 321.983 142.391C322.129 143.005 322.285 143.64 322.446 144.269C322.506 144.521 322.572 144.772 322.632 145.029L322.733 145.427C323.806 149.69 324.969 153.934 325.684 156.501C326.107 158.011 326.374 158.943 326.374 158.943C326.374 158.943 333.959 146.685 340.012 139.708C340.103 139.608 340.184 139.512 340.269 139.421C340.869 138.732 341.458 138.102 342.022 137.549C343.256 136.32 344.364 135.445 345.255 135.122C345.445 135.053 345.629 134.967 345.804 134.866C348.282 133.461 352.281 128.362 356.023 123.021C356.39 122.518 356.748 121.969 357.11 121.45C357.941 120.252 358.747 119.049 359.508 117.896C360.092 117.016 360.651 116.16 361.18 115.344C363.698 111.428 365.471 108.508 365.471 108.508L368.966 108.352L369.575 108.322H369.983L385.852 107.587C385.852 107.587 386.537 107.703 387.665 107.929C387.726 107.929 387.786 107.929 387.852 107.97C393.482 109.087 409.125 112.626 410.082 117.534C411.25 123.545 436.482 131.563 436.482 131.563C436.814 135.591 442.994 138.243 442.994 138.243C442.994 138.243 452.351 162.96 449.848 172.645C447.375 182.209 456.284 205.868 456.521 206.533L454.814 208.687L412.575 262.092Z" fill="#E8F5FF"/>
<path opacity="0.1" d="M363.899 85.569C363.899 85.569 379.345 81.1895 382.856 90.2052C386.366 99.2208 394.218 135.631 394.218 135.631C394.218 135.631 373.831 139.472 368.487 135.631C365.353 133.351 361.474 132.337 357.624 132.792L346.096 140.64L342.692 139.633C342.692 139.633 361.134 112.228 365.143 102.916C369.152 93.603 370.507 89.44 363.899 85.569Z" fill="black"/>
<path d="M363.23 83.5553C363.23 83.5553 378.686 79.1759 382.211 88.1916C385.737 97.2072 393.573 133.617 393.573 133.617C393.573 133.617 373.191 137.458 367.843 133.617C364.71 131.338 360.833 130.324 356.985 130.778L345.447 138.626L342.042 137.619C342.042 137.619 360.485 110.215 364.494 100.902C368.502 91.5894 369.837 87.4365 363.23 83.5553Z" fill="#E8F5FF"/>
<path opacity="0.1" d="M259.548 228.808C259.548 228.808 271.076 231.647 273.252 238.161C275.428 244.675 264.731 244.841 264.731 244.841C264.731 244.841 258.214 233.318 259.548 228.808Z" fill="black"/>
<path opacity="0.1" d="M302.487 276.902C302.487 276.902 274.254 334.685 280.771 340.197C287.288 345.71 302.487 276.902 302.487 276.902Z" fill="black"/>
<path opacity="0.1" d="M341.417 234.32C341.417 234.32 363.975 290.448 359.462 299.116C354.95 307.784 369.152 299.116 369.152 299.116L341.417 234.32Z" fill="black"/>
<path d="M372.829 289.763C372.829 289.763 296.64 293.438 318.865 317.152C341.09 340.867 386.699 318.159 386.699 318.159L372.829 289.763Z" fill="#FFB0B1"/>
<path opacity="0.1" d="M361.804 64.3108C361.811 69.7726 360.738 75.1819 358.647 80.2279C357.947 80.3084 357.247 80.3588 356.572 80.389C355.564 78.1791 356.103 75.6269 356.123 73.1955C356.144 70.7642 355.247 67.9049 352.905 67.2505C348.237 65.9367 345.013 74.6604 340.41 73.0848C336.885 71.8867 337.807 66.5408 335.777 63.455C334.17 61.0136 330.952 60.3239 328.449 58.7936C323.126 55.5266 323.287 50.3015 320.814 45.3582C318.226 40.1784 312.756 41.7087 308.007 44.7642C304.401 47.0899 301.289 50.2058 297.431 52.0583C294.092 53.6691 290.34 54.2531 286.638 54.3386C284.359 54.4269 282.08 54.1862 279.87 53.6238C282.469 43.855 288.535 35.3648 296.935 29.7364C305.336 24.1081 315.498 21.7258 325.526 23.0339C335.554 24.3419 344.764 29.2511 351.438 36.8458C358.112 44.4405 361.795 54.2023 361.799 64.3108H361.804Z" fill="black"/>
<path d="M308.022 43.4304C304.411 45.756 301.304 48.8669 297.446 50.7295C294.107 52.3353 290.355 52.9192 286.653 53.0048C282.121 53.1055 277.241 52.3101 274.143 49.0381C271.298 46.0178 270.618 41.3715 271.822 37.4098C273.025 33.4482 275.911 30.1611 279.3 27.78C282.69 25.399 286.623 23.7529 288.869 20.345C290.058 18.5429 290.632 16.4186 291.619 14.5007C294.777 8.36437 301.878 5.04201 308.742 4.62924C315.607 4.21646 322.411 6.26021 328.948 8.47512C335.485 10.69 342.072 13.1264 348.972 13.5845C352.044 13.7758 355.237 13.5845 358.088 14.7473C361.92 16.3028 364.433 20.0228 366.146 23.8083C368.064 28.077 369.258 32.7384 369.057 37.3998C368.634 47.3517 362.056 57.1175 364.947 66.6516C365.713 69.1937 367.148 71.8013 366.382 74.3434C365.264 78.0534 360.475 78.8991 356.602 79.0752C355.595 76.8654 356.134 74.3082 356.154 71.8818C356.174 69.4555 355.277 66.5912 352.941 65.9368C348.267 64.633 345.044 73.3417 340.451 71.7711C336.951 70.568 337.857 65.227 335.822 62.1413C334.216 59.6948 330.993 59.0102 328.495 57.4799C323.171 54.2129 323.332 48.9878 320.86 44.0445C318.251 38.8395 312.776 40.3698 308.022 43.4304Z" fill="#575A89"/>
<path d="M234.145 234.984L230.303 236.323C230.303 236.323 231.813 259.036 226.777 265.55C221.741 272.064 243.316 288.258 243.316 288.258C243.316 288.258 272.889 288.092 273.725 285.741C274.561 283.39 272.214 243.658 272.214 243.658C272.214 243.658 256.34 237.476 257.675 227.625C257.675 227.625 252.83 250.836 245.648 249.834C238.466 248.833 230.313 242.837 234.145 234.984Z" fill="#E8F5FF"/>
<path opacity="0.1" d="M246.963 256.862C252.562 256.862 257.101 252.712 257.101 247.594C257.101 242.476 252.562 238.327 246.963 238.327C241.364 238.327 236.825 242.476 236.825 247.594C236.825 252.712 241.364 256.862 246.963 256.862Z" fill="black"/>
<path d="M258.047 235.654C258.047 235.654 256.033 174.2 238.497 187.892C220.961 201.585 220.789 217.96 224.128 222.797C227.467 227.635 238.174 251.853 238.174 251.853C239.849 252.823 241.73 253.383 243.663 253.486C245.596 253.59 247.526 253.234 249.295 252.448C251.064 251.662 252.621 250.469 253.84 248.965C255.058 247.462 255.903 245.691 256.305 243.799L258.047 235.654Z" fill="#FFB0B1"/>
<path opacity="0.1" d="M367.44 79.9913C367.358 79.7213 367.201 79.4803 366.986 79.2967C366.12 78.5063 364.257 78.2295 361.447 78.4711L361.562 79.8001C365.309 79.4779 366.05 80.2229 366.145 80.3488V80.4746L366.261 80.6407C366.728 81.2683 367.059 81.9865 367.233 82.7493C367.406 83.5121 367.418 84.3027 367.268 85.0705C366.448 89.1731 361.406 92.4401 361.356 92.4754L361.235 92.5458L361.16 92.6616C358.984 95.8883 346.68 104.995 343.462 107.35L343.18 107.028C341.74 108.277 329.079 119.356 328.394 123.6C327.95 126.263 324.949 127.295 323.861 127.582C322.713 126.711 318.986 123.746 317.047 120.423C315.229 117.297 322.547 111.196 323.191 108.815L322.184 107.783C322.078 108.166 312.681 116.945 315.294 121.43C317.389 125.029 321.217 128.11 322.557 129.127C322.129 133.013 319.464 155.832 315.37 161.238C310.283 167.958 306.008 201.826 306.481 213.651C306.899 224.157 304.154 244 294.988 252.522C293.401 254.063 291.487 255.225 289.388 255.922C287.289 256.619 285.059 256.834 282.866 256.55H282.755H282.644C282.513 256.55 269.218 257.909 258.047 248.495C248.907 240.809 243.729 228.264 242.652 211.199H242.43L242.339 206.231C244.818 205.844 247.05 204.513 248.566 202.515C250.083 200.518 250.766 198.012 250.472 195.522C250.179 193.032 248.931 190.752 246.991 189.163C245.051 187.573 242.57 186.797 240.07 186.997C237.569 187.198 235.244 188.359 233.582 190.237C231.92 192.115 231.052 194.564 231.158 197.069C231.265 199.574 232.339 201.94 234.154 203.67C235.97 205.4 238.385 206.359 240.894 206.347H241.005L241.095 211.285L240.652 211.315C241.76 228.934 247.199 241.966 256.768 250.016C264.041 256.04 273.331 259.078 282.76 258.518C283.429 258.591 284.102 258.628 284.775 258.629C289.097 258.651 293.255 256.979 296.358 253.972C306.013 244.987 308.949 224.413 308.49 213.55C307.987 201.021 312.474 168.371 316.976 162.426C321.388 156.592 324.062 133.859 324.531 129.454C326.127 129.006 329.738 127.592 330.353 123.917C330.796 121.259 339.252 113.069 344.454 108.533L344.298 108.352C347.098 106.308 355.806 99.8651 360.122 95.7272C361.462 94.4436 362.791 93.16 364.181 91.9367C365.853 90.4568 367.979 88.106 368.538 85.3273C368.728 84.41 368.729 83.4635 368.54 82.5459C368.352 81.6283 367.977 80.759 367.44 79.9913Z" fill="black"/>
<path d="M322.386 128.81C322.174 128.664 317.158 125.075 314.645 120.756C312.036 116.27 321.434 107.496 321.534 107.114L322.542 108.146C321.902 110.522 314.584 116.628 316.403 119.749C318.694 123.69 323.519 127.139 323.569 127.174L322.386 128.81Z" fill="#353146"/>
<path d="M342.808 108.327L342.022 107.245C342.183 107.129 358.002 95.6921 360.495 91.9922L360.576 91.8815L360.691 91.806C360.742 91.7707 365.783 88.5088 366.604 84.4011C366.755 83.6342 366.744 82.844 366.57 82.0818C366.397 81.3196 366.065 80.6023 365.597 79.9763L365.481 79.8052V79.6844C365.38 79.5535 364.64 78.8135 360.893 79.1357L360.777 77.8017C363.592 77.5601 365.451 77.8369 366.317 78.6273C366.533 78.8127 366.691 79.0553 366.775 79.327C367.32 80.0923 367.702 80.9611 367.897 81.8797C368.093 82.7982 368.099 83.7472 367.913 84.6679C367.354 87.4517 365.234 89.8025 363.557 91.2774C362.172 92.5006 360.837 93.7943 359.503 95.0679C354.441 99.9155 343.362 107.929 342.808 108.327Z" fill="#E8F5FF"/>
<path d="M241.689 204.478L240.355 204.503L240.504 212.611L241.838 212.587L241.689 204.478Z" fill="#E8F5FF"/>
<path d="M240.244 205.707C245.626 205.707 249.989 201.346 249.989 195.967C249.989 190.587 245.626 186.226 240.244 186.226C234.862 186.226 230.499 190.587 230.499 195.967C230.499 201.346 234.862 205.707 240.244 205.707Z" fill="#587EEC"/>
<path d="M240.244 204.056C244.714 204.056 248.338 200.434 248.338 195.967C248.338 191.499 244.714 187.877 240.244 187.877C235.774 187.877 232.151 191.499 232.151 195.967C232.151 200.434 235.774 204.056 240.244 204.056Z" fill="#E8F5FF"/>
<path d="M284.14 257.979C283.467 257.98 282.795 257.945 282.126 257.873C272.697 258.428 263.409 255.39 256.134 249.371C246.565 241.317 241.136 228.299 240.018 210.666L242.032 210.54C243.11 227.605 248.287 240.154 257.433 247.836C268.603 257.224 281.894 255.89 282.025 255.89H282.136H282.247C284.441 256.173 286.671 255.958 288.77 255.26C290.87 254.563 292.785 253.402 294.374 251.863C303.535 243.341 306.28 223.497 305.862 212.991C305.358 201.157 309.634 167.289 314.725 160.574C319.182 154.689 321.947 128.166 321.978 127.899L322.053 127.144L322.798 127.013C322.844 127.013 327.195 126.187 327.739 122.935C328.444 118.697 341.085 107.617 342.52 106.364L343.835 107.874C338.612 112.404 330.156 120.6 329.733 123.263C329.119 126.947 325.508 128.357 323.916 128.8C323.413 133.209 320.759 155.937 316.362 161.772C311.86 167.717 307.372 200.366 307.876 212.896C308.309 223.759 305.403 244.337 295.749 253.318C292.64 256.332 288.471 258.006 284.14 257.979Z" fill="#353146"/>
<g opacity="0.1">
<path opacity="0.1" d="M366.095 52.4107C366.921 49.3602 367.918 46.2895 368.613 43.1987C367.782 46.3046 366.78 49.3602 366.095 52.4107Z" fill="black"/>
<path opacity="0.1" d="M357.669 76.3821C356.662 74.1722 357.201 71.615 357.221 69.1887C357.241 66.7623 356.345 63.9232 354.008 63.2436C349.334 61.9399 346.111 70.6535 341.518 69.0779C337.993 67.8748 338.925 62.5339 336.89 59.4481C335.283 57.0016 332.065 56.317 329.567 54.7867C324.239 51.5197 324.4 46.2946 321.932 41.3513C319.339 36.1664 313.874 37.6967 309.12 40.7573C305.509 43.083 302.402 46.1989 298.544 48.0564C295.205 49.6622 291.453 50.2462 287.751 50.3317C283.244 50.4375 278.338 49.6371 275.241 46.3651C272.854 43.8481 271.993 40.1583 272.486 36.7C272.401 36.9366 272.325 37.1732 272.25 37.4098C271.041 41.3715 271.746 46.0278 274.571 49.038C277.669 52.3101 282.574 53.1054 287.081 53.0047C290.788 52.9192 294.535 52.3352 297.879 50.7294C301.747 48.8669 304.854 45.756 308.455 43.4303C313.209 40.3697 318.679 38.8394 321.267 44.0243C323.735 48.9676 323.579 54.1927 328.902 57.4597C331.421 58.9699 334.619 59.6746 336.23 62.1211C338.245 65.2169 337.353 70.5478 340.858 71.7509C345.446 73.3215 348.67 64.6129 353.343 65.9166C355.68 66.571 356.582 69.4403 356.556 71.8616C356.531 74.2829 356.007 76.8452 357.005 79.055C360.878 78.8789 365.667 78.0483 366.79 74.3232C366.945 73.7886 367.016 73.2334 367.002 72.6771C365.365 75.5011 361.155 76.226 357.669 76.3821Z" fill="black"/>
</g>
<path opacity="0.1" d="M448.69 200.417L454.537 206.598C454.537 206.598 459.216 240.663 461.552 243.849C463.889 247.036 469.409 259.711 464.227 269.23C464.227 269.23 462.555 274.41 463.557 276.579C464.559 278.749 456.043 289.607 456.043 289.607C456.043 289.607 444.847 299.624 442.505 301.13C440.163 302.635 427.804 314.656 423.629 314.822C419.454 314.988 418.09 320.168 418.09 320.168L394.53 321.003C394.53 321.003 381.516 320.324 378.686 322.161C378.686 322.161 380.197 302.287 365.657 289.26L384.201 282.58C384.201 282.58 391.221 279.559 393.392 276.403C394.757 274.468 396.694 273.009 398.932 272.23C398.932 272.23 404.109 268.555 404.275 266.552C404.441 264.548 410.606 262.092 410.606 262.092L407.116 232.316L408.954 182.884C408.954 182.884 414.801 141.465 427.165 143.806C439.529 146.147 448.69 200.417 448.69 200.417Z" fill="black"/>
<path d="M450.704 200.417L456.551 206.598C456.551 206.598 461.23 240.663 463.567 243.849C465.904 247.036 471.423 259.711 466.241 269.23C466.241 269.23 464.574 274.41 465.576 276.579C466.578 278.749 458.057 289.607 458.057 289.607C458.057 289.607 446.862 299.624 444.52 301.13C442.178 302.635 429.819 314.656 425.644 314.822C421.469 314.988 420.104 320.168 420.104 320.168L396.544 321.003C396.544 321.003 383.521 320.324 380.7 322.161C380.7 322.161 382.211 302.287 367.672 289.26L386.215 282.58C386.215 282.58 393.236 279.559 395.406 276.403C396.772 274.468 398.709 273.009 400.946 272.23C400.946 272.23 406.123 268.555 406.289 266.552C406.456 264.548 412.62 262.092 412.62 262.092L409.13 232.316L410.968 182.884C410.968 182.884 416.815 141.465 429.179 143.806C441.543 146.147 450.704 200.417 450.704 200.417Z" fill="#E8F5FF"/>
<path opacity="0.1" d="M428.968 250.353C428.968 250.353 446.177 245.822 450.689 251.36C455.202 256.897 428.968 250.353 428.968 250.353Z" fill="black"/>
<path opacity="0.1" d="M424.959 257.949C430.806 262.042 448.851 262.208 448.851 262.208L424.959 257.949Z" fill="black"/>
<path opacity="0.1" d="M433.813 278.407C434.316 278.573 446.217 291.268 451.213 287.427C456.209 283.587 433.813 278.407 433.813 278.407Z" fill="black"/>
<path opacity="0.1" d="M273.539 171.86C273.539 171.86 277.034 195.912 275.312 205.707C273.589 215.503 279.875 227.64 279.875 227.64L273.539 171.86Z" fill="black"/>
<path d="M196.162 181.64C192.133 184.797 189.192 192.267 187.061 200.477C183.345 214.799 182.131 231.405 182.131 231.405C182.131 231.405 150.05 224.056 152.387 220.718C153.857 218.619 151.883 202.803 150.236 191.336C149.254 184.56 148.378 179.3 148.378 179.3C148.378 179.3 207.191 172.952 196.162 181.64Z" fill="#FFB0B1"/>
<path opacity="0.1" d="M196.162 180.971C192.133 184.132 189.192 191.597 187.061 199.808C180.67 201.748 173.872 201.923 167.389 200.314C160.905 198.706 154.979 195.374 150.236 190.671C149.254 183.891 148.378 178.63 148.378 178.63C148.378 178.63 207.191 172.287 196.162 180.971Z" fill="black"/>
<path d="M213.406 162.98C213.409 171.735 210.314 180.21 204.667 186.903C199.02 193.597 191.186 198.078 182.552 199.553C173.917 201.028 165.039 199.403 157.488 194.965C149.938 190.526 144.201 183.561 141.294 175.302C138.388 167.043 138.498 158.022 141.605 149.836C144.713 141.65 150.618 134.826 158.275 130.574C165.932 126.321 174.847 124.912 183.443 126.598C192.038 128.284 199.76 132.954 205.242 139.784C210.525 146.362 213.404 154.545 213.406 162.98Z" fill="#FFB0B1"/>
<path opacity="0.1" d="M242.656 394.82H232.08L231.189 376.149L230.257 356.824C230.257 356.824 232.659 356.467 236.487 355.933L238.033 355.727H238.159C238.995 359.648 239.821 363.675 240.617 367.697C241.941 374.838 242.631 382.081 242.677 389.343C242.677 389.847 242.677 390.35 242.677 390.823C242.707 392.167 242.677 393.511 242.656 394.82Z" fill="black"/>
<path d="M240.627 394.82H107.992C108.566 393.516 108.949 392.726 108.949 392.726C108.949 392.726 119.56 346.324 124.954 326.692C124.956 326.675 124.956 326.658 124.954 326.641C125.628 323.974 126.442 321.345 127.392 318.763C127.453 318.588 127.533 318.419 127.629 318.26C130.298 313.921 133.642 309.244 128.963 302.564C124.284 295.884 125.941 266.491 125.941 266.491C125.941 266.491 131.622 241.438 137.636 228.078C138.548 226.009 139.843 224.13 141.453 222.541C141.976 222.029 142.535 221.555 143.125 221.121C143.574 220.784 144.041 220.473 144.525 220.19L144.621 220.129C147.147 218.698 149.952 217.827 152.845 217.577C154.9 217.363 156.975 217.42 159.014 217.748C168.765 219.178 176.571 221.569 182.776 224.292C199.592 231.677 204.683 241.574 204.784 241.78L204.824 241.866C205.499 243.441 215.37 266.476 218.926 277.224C219.847 280.022 220.351 281.991 220.15 282.529C219.142 285.197 227.835 318.597 227.835 318.597C227.835 318.597 231.864 334.705 235.893 353.588C236.069 354.373 236.235 355.158 236.396 355.953C237.117 359.382 237.832 362.875 238.522 366.364C239.859 373.553 240.548 380.848 240.582 388.16C240.656 390.439 240.671 392.659 240.627 394.82Z" fill="#EB5569"/>
<path opacity="0.1" d="M152.054 206.09C152.054 206.09 142.904 202.566 143.014 207.912C143.125 213.258 145.245 215.815 144.576 216.596C143.906 217.376 144.908 222.052 144.908 222.052C144.908 222.052 157.272 222.052 162.953 224.61C168.634 227.167 189.574 232.291 192.249 233.852C194.923 235.412 204.839 242.409 204.839 242.409L205.731 229.16C205.731 229.16 195.482 220.698 178.666 216.359C161.85 212.02 152.054 206.09 152.054 206.09Z" fill="black"/>
<path d="M152.054 205.42C152.054 205.42 142.904 201.897 143.014 207.243C143.125 212.589 145.245 215.146 144.576 215.926C143.906 216.706 144.908 221.383 144.908 221.383C144.908 221.383 157.272 221.383 162.953 223.945C168.634 226.507 189.574 231.627 192.249 233.182C194.923 234.738 204.839 241.74 204.839 241.74L205.741 228.531C205.741 228.531 195.492 220.069 178.676 215.73C161.86 211.391 152.054 205.42 152.054 205.42Z" fill="#EB5569"/>
<path opacity="0.1" d="M179.678 237.305C179.678 237.305 197.164 256.227 196.273 261.468C195.381 266.708 179.678 237.305 179.678 237.305Z" fill="black"/>
<path opacity="0.1" d="M151.274 305.66C151.274 305.66 138.457 317.465 134.679 318.134C130.902 318.804 137.575 321.029 141.916 319.252C146.258 317.475 155.514 312.798 155.514 312.798L151.274 305.66Z" fill="black"/>
<path d="M245.834 394.82H215.944C211.764 391.196 207.811 387.838 205.292 385.82C201.263 382.588 198.358 377.831 196.504 374.005C196.086 373.134 195.724 372.319 195.416 371.579C194.866 370.304 194.382 369.002 193.966 367.677L216.1 354.539C217.324 355.579 218.473 356.702 219.54 357.902L219.807 358.209C221.036 359.658 222.119 361.305 222.214 362.654C222.325 364.224 226.697 370.3 231.164 376.134C235.696 382.069 240.34 387.742 240.647 388.125C240.647 388.125 241.412 389.167 242.661 390.768C243.543 391.926 244.631 393.315 245.834 394.82Z" fill="#FFB0B1"/>
<path opacity="0.1" d="M205.242 139.784C204.18 142.18 203.228 144.667 203.087 147.335C202.689 155.036 203.334 172.257 194.802 176.123C190.577 178.026 186.054 173.848 181.421 173.747C178.087 173.677 175.03 175.791 172.995 178.434C170.961 181.077 169.696 184.213 168.221 187.203C166.878 189.917 165.33 192.525 163.593 195.005C163.073 195.764 162.501 196.486 161.88 197.165C156.678 194.971 152.046 191.619 148.336 187.364C144.626 183.11 141.937 178.065 140.473 172.614C139.01 167.163 138.81 161.451 139.89 155.911C140.97 150.372 143.301 145.152 146.704 140.649C150.108 136.146 154.496 132.479 159.532 129.928C164.568 127.377 170.121 126.008 175.767 125.927C181.413 125.845 187.002 127.053 192.11 129.458C197.218 131.863 201.71 135.401 205.242 139.804V139.784Z" fill="black"/>
<path d="M202.417 145.975C202.014 153.677 202.664 170.898 194.127 174.759C189.902 176.662 185.379 172.489 180.746 172.388C177.412 172.313 174.36 174.432 172.32 177.07C170.281 179.707 169.027 182.849 167.546 185.844C166.202 188.557 164.655 191.166 162.918 193.646C161.88 195.116 160.732 196.591 159.135 197.417C156.355 198.866 152.986 198.051 150.005 197.12C146.137 195.901 142.326 194.529 138.572 193.002C138.658 192.435 138.702 191.863 138.703 191.29C138.592 191.502 138.472 191.698 138.351 191.909L138.114 192.322C137.686 193.077 137.268 193.832 136.885 194.608C136.739 194.905 136.598 195.212 136.472 195.519C135.966 196.662 135.648 197.879 135.53 199.123C135.274 202.481 136.931 205.667 138.401 208.687C144.057 220.371 147.552 234.033 143.296 246.29C141.453 251.621 138.26 256.358 135.928 261.508C131.852 270.629 130.652 280.774 132.489 290.594C133.652 296.695 135.984 302.735 135.41 308.922C134.402 319.569 125.216 327.492 116.015 332.939C111.044 335.868 104.96 338.476 99.6824 336.16C103.047 332.234 103.913 326.802 104.638 321.678C106.622 307.7 108.612 293.716 110.606 279.725C111.402 274.158 112.196 268.591 112.988 263.023C114.469 252.563 115.97 241.986 115.043 231.461C114.368 223.703 112.464 215.468 115.829 208.446C117.606 204.726 120.774 201.645 121.761 197.638C122.572 194.381 121.817 190.918 122.351 187.6C122.643 186.091 123.137 184.628 123.821 183.251C124.692 181.383 125.828 179.65 127.195 178.107C125.846 177.714 124.587 177.175 123.821 176.048C125.987 174.638 126.314 171.462 125.332 169.076C124.35 166.69 122.386 164.873 120.618 162.99C118.85 161.107 117.148 158.912 116.927 156.345C116.498 151.457 121.384 147.672 122.245 142.849C123.116 137.941 119.671 133.169 119.948 128.201C120.271 122.195 125.79 117.831 131.24 115.299C139.463 111.494 148.546 109.931 157.569 110.768C164.912 111.463 172.018 113.733 179.341 114.614C183.758 115.118 188.235 115.168 192.621 115.943C197.008 116.718 201.405 118.354 204.492 121.571C212.63 130.053 202.88 137.035 202.417 145.975Z" fill="#575A89"/>
<path opacity="0.1" d="M195.608 374.01C193.039 372.897 188.366 373.562 180.343 371.121C172.32 368.679 170.774 357.645 170.774 357.645V357.61C170.678 357.358 169.933 355.717 164.887 349.968C159.311 343.62 147.26 311.56 147.26 311.56C147.26 311.56 136.573 300.088 136.91 295.859C137.248 291.631 135.012 280.38 135.233 267.795C135.455 255.21 159.291 246.864 159.291 246.864C205.187 238.735 194.379 291.621 193.155 295.627C191.931 299.634 198.282 310.457 198.282 310.457C197.386 315.169 201.958 322.463 201.958 322.463C201.958 322.463 203.066 328.917 203.293 331.368C203.306 331.481 203.331 331.593 203.369 331.7C204.104 334.011 210.097 336.105 212.535 337.378C215.098 338.717 223.342 350.406 223.342 350.406C225.12 358.989 198.166 375.138 195.608 374.01Z" fill="black"/>
<path d="M196.943 371.996C194.379 370.879 189.7 371.548 181.683 369.102C173.665 366.655 172.114 355.631 172.114 355.631V355.596C172.023 355.339 171.273 353.703 166.226 347.955C160.651 341.607 148.6 309.541 148.6 309.541C148.6 309.541 137.913 298.074 138.245 293.845C138.577 289.617 136.351 278.366 136.573 265.792C136.795 253.217 160.616 244.876 160.616 244.876C206.511 236.746 195.704 289.632 194.48 293.639C193.256 297.646 199.607 308.469 199.607 308.469C198.71 313.181 203.283 320.475 203.283 320.475C203.283 320.475 204.391 326.928 204.623 329.38C204.631 329.493 204.655 329.605 204.693 329.712C205.429 332.022 211.422 334.116 213.864 335.39C216.423 336.724 224.672 348.418 224.672 348.418C226.46 356.985 199.506 373.134 196.943 371.996Z" fill="#EB5569"/>
<path opacity="0.1" d="M161.523 272.487C161.523 272.487 181.572 293.629 186.805 293.629C192.037 293.629 161.523 272.487 161.523 272.487Z" fill="black"/>
<path d="M196.942 371.996C194.379 370.879 189.7 371.548 181.683 369.102C173.665 366.655 172.114 355.631 172.114 355.631V355.596C177.427 352.072 190.884 342.12 196.187 338.481C199.919 335.929 202.966 332.179 204.749 329.692C205.484 332.002 211.477 334.096 213.92 335.37C216.478 336.704 224.727 348.398 224.727 348.398C226.46 356.985 199.506 373.134 196.942 371.996Z" fill="#FF748E"/>
<g opacity="0.1">
<path opacity="0.1" d="M123.851 176.104C123.876 176.144 123.912 176.179 123.942 176.22C124.093 176.028 124.249 175.837 124.41 175.655C124.239 175.822 124.052 175.972 123.851 176.104Z" fill="black"/>
<path opacity="0.1" d="M135.535 199.178C135.747 196.385 137.243 193.923 138.643 191.467C137.726 191.114 136.81 190.757 135.903 190.384C135.989 189.82 136.033 189.249 136.034 188.678C134.619 191.195 133.078 193.671 132.861 196.505C132.604 199.868 134.261 203.05 135.732 206.07C141.393 217.748 144.883 231.41 140.627 243.673C138.779 248.999 135.591 253.741 133.259 258.89C129.184 268.01 127.986 278.154 129.824 287.971C130.978 294.077 133.314 300.113 132.74 306.299C131.733 316.946 122.552 324.869 113.346 330.311C109.584 332.536 105.187 334.575 100.982 334.429C100.592 335.055 100.158 335.652 99.6824 336.216C104.965 338.546 111.044 335.924 116.015 332.984C125.226 327.547 134.427 319.644 135.435 308.977C136.009 302.791 133.672 296.755 132.514 290.649C130.675 280.833 131.87 270.69 135.938 261.568C138.255 256.424 141.478 251.677 143.306 246.351C147.562 234.088 144.067 220.426 138.411 208.748C136.946 205.707 135.279 202.541 135.535 199.178Z" fill="black"/>
<path opacity="0.1" d="M204.482 121.632C203.986 121.124 203.454 120.652 202.89 120.222C208.994 128.135 200.181 134.861 199.743 143.378C199.35 151.08 199.994 168.306 191.458 172.162C187.238 174.069 182.71 169.891 178.082 169.791C174.743 169.72 171.691 171.839 169.651 174.477C167.611 177.115 166.357 180.256 164.882 183.246C163.535 185.96 161.987 188.568 160.248 191.049C159.241 192.524 158.063 193.993 156.461 194.824C153.691 196.269 150.322 195.458 147.335 194.522C144.431 193.609 141.554 192.602 138.703 191.502C138.697 192.026 138.654 192.549 138.572 193.067C142.329 194.598 146.142 195.97 150.01 197.185C152.991 198.121 156.36 198.932 159.135 197.487C160.732 196.656 161.89 195.181 162.923 193.707C164.662 191.229 166.209 188.622 167.551 185.909C169.032 182.919 170.281 179.773 172.325 177.135C174.37 174.497 177.417 172.383 180.751 172.454C185.384 172.554 189.912 176.732 194.132 174.824C202.669 170.969 202.019 153.743 202.417 146.041C202.88 137.086 212.63 130.109 204.482 121.632Z" fill="black"/>
</g>
<path opacity="0.1" d="M138.119 192.327C137.691 193.082 137.273 193.837 136.89 194.613C136.744 194.91 136.603 195.217 136.477 195.524C133.838 192.866 127.412 186.548 123.826 184.59C124.698 182.722 125.834 180.99 127.2 179.446C127.2 179.446 135.747 183.961 138.119 192.327Z" fill="black"/>
<path d="M138.356 191.915C136.377 182.959 127.2 178.112 127.2 178.112C125.833 179.655 124.697 181.388 123.826 183.256C127.608 185.325 134.579 192.262 136.89 194.613L138.356 191.915Z" fill="#EB5569"/>
<defs>
<linearGradient id="paint0_linear_4_6" x1="368.094" y1="48.8569" x2="368.094" y2="39.6046" gradientUnits="userSpaceOnUse">
<stop stop-color="#808080" stop-opacity="0.25"/>
<stop offset="0.54" stop-color="#808080" stop-opacity="0.12"/>
<stop offset="1" stop-color="#808080" stop-opacity="0.1"/>
</linearGradient>
<linearGradient id="paint1_linear_4_6" x1="231050" y1="331484" x2="231050" y2="23112.5" gradientUnits="userSpaceOnUse">
<stop stop-color="#808080" stop-opacity="0.25"/>
<stop offset="0.54" stop-color="#808080" stop-opacity="0.12"/>
<stop offset="1" stop-color="#808080" stop-opacity="0.1"/>
</linearGradient>
</defs>
</svg>
