<svg width="68" height="72" viewBox="0 0 68 72" fill="none" xmlns="http://www.w3.org/2000/svg">
<path d="M33.7249 0.0844727C27.8873 0.0844727 24.3931 0.969677 22.172 2.07342C21.0601 2.62667 20.2706 3.20758 19.7397 3.80233C19.2059 4.39708 18.8696 5.27122 18.8696 5.27122C18.7824 5.49338 18.7245 5.72583 18.6972 5.96278L17.2184 24.8951C17.1989 25.0113 17.2378 25.1994 17.2184 25.3266L17.046 27.2298C17.0298 27.4019 17.0298 27.5751 17.046 27.7471C17.046 36.8758 24.5515 44.3447 33.7249 44.3447C42.8983 44.3447 50.4038 36.8758 50.4038 27.7471V27.3156C50.4043 27.287 50.4043 27.2584 50.4038 27.2298L48.7526 5.96278C48.7254 5.72583 48.6674 5.49338 48.5803 5.27122C48.5803 5.27122 48.2439 4.39708 47.7102 3.80233C47.1792 3.20482 46.3898 2.6239 45.2778 2.07342C43.0568 0.966911 39.5625 0.0844727 33.7249 0.0844727ZM33.7249 44.3447C15.3781 44.3447 0.367126 52.9367 0.367126 60.6823V72.0073H67.0827V60.6823C67.0827 53.324 53.5117 45.2188 36.4186 44.4305C35.5219 44.3716 34.6235 44.343 33.7249 44.3447ZM33.7249 5.617C39.0066 5.617 41.6446 6.44688 42.7593 7.00013C43.1318 7.18547 43.1763 7.2574 43.2819 7.34592L44.4105 21.523C41.8531 21.6779 38.3672 22.2146 33.7249 22.2146C29.0826 22.2146 25.5995 21.6779 23.0393 21.523L24.1679 7.34592C24.2708 7.2574 24.318 7.18547 24.6905 7.00013C25.8052 6.44688 28.4433 5.617 33.7249 5.617ZM31.4649 8.38327V11.6696H28.1653V16.1648H31.4677V19.4483H35.9821V16.162H39.2846V11.6696H35.9821V8.38327H31.4677H31.4649ZM25.3855 50.5688L32.5101 66.4748H5.92676V60.6823C5.92676 58.6214 13.0153 52.5854 25.3855 50.5688ZM42.0644 50.5688C54.4346 52.5882 61.5231 58.6214 61.5231 60.6823V66.4748H34.9397L42.0644 50.5688Z" fill="#EC5863"/>
</svg>
