<svg width="88" height="73" viewBox="0 0 88 73" fill="none" xmlns="http://www.w3.org/2000/svg">
<path d="M24.5814 0.410156C18.2049 0.410156 12.0895 2.9095 7.58056 7.35837C3.07165 11.8072 0.538574 17.8412 0.538574 24.1328C0.538574 26.2895 0.932003 28.4461 1.50029 30.6027H19.3357L24.8874 16.0671C26.1989 12.6166 31.3571 12.2715 33.0183 16.0671L42.0671 39.2291L44.6463 33.1043C45.2146 31.681 46.7446 30.6027 48.6243 30.6027H87.0054C87.5737 28.4461 87.9671 26.2895 87.9671 24.1328C87.9671 17.8412 85.4341 11.8072 80.9252 7.35837C76.4162 2.9095 70.3008 0.410156 63.9243 0.410156C55.7934 0.410156 48.6243 4.42145 44.2529 10.5031C39.8814 4.42145 32.7123 0.410156 24.5814 0.410156ZM4.91 37.0725C3.75063 37.0725 2.63874 37.5269 1.81894 38.3358C0.999134 39.1447 0.538574 40.2418 0.538574 41.3857C0.538574 42.5296 0.999134 43.6267 1.81894 44.4356C2.63874 45.2445 3.75063 45.6989 4.91 45.6989H15.5763L39.8814 69.4216C44.2529 73.3035 44.2529 73.3035 48.6243 69.4216L72.9294 45.6989H83.5957C84.7551 45.6989 85.867 45.2445 86.6868 44.4356C87.5066 43.6267 87.9671 42.5296 87.9671 41.3857C87.9671 40.2418 87.5066 39.1447 86.6868 38.3358C85.867 37.5269 84.7551 37.0725 83.5957 37.0725H50.3729L46.3074 46.9929C44.5589 51.3492 39.5317 50.7454 37.9143 47.1223L28.9529 24.1328L24.7563 34.1826C24.1006 35.8217 22.6143 37.0725 20.6471 37.0725H4.91Z" fill="#EC5863"/>
</svg>
