<svg width="65" height="73" viewBox="0 0 65 73" fill="none" xmlns="http://www.w3.org/2000/svg">
<path d="M64.4813 26.0292H43.0528V72.7791H35.9099V51.2022H28.767V72.7791H21.6242V26.0292H0.195618V18.8369H64.4813V26.0292ZM32.3385 0.856201C34.2329 0.856201 36.0497 1.61396 37.3892 2.96277C38.7288 4.31159 39.4813 6.14097 39.4813 8.04849C39.4813 9.956 38.7288 11.7854 37.3892 13.1342C36.0497 14.483 34.2329 15.2408 32.3385 15.2408C30.4441 15.2408 28.6273 14.483 27.2877 13.1342C25.9482 11.7854 25.1956 9.956 25.1956 8.04849C25.1956 4.05677 28.3742 0.856201 32.3385 0.856201Z" fill="#EC5863"/>
</svg>
